<?xml version="1.0" standalone="no"?>
<!DOCTYPE svg PUBLIC "-//W3C//DTD SVG 20010904//EN"
 "http://www.w3.org/TR/2001/REC-SVG-20010904/DTD/svg10.dtd">
<svg version="1.0" xmlns="http://www.w3.org/2000/svg"
 width="100.000000pt" height="100.000000pt" viewBox="0 0 534.000000 534.000000"
 preserveAspectRatio="xMidYMid meet">

<g transform="translate(0.000000,534.000000) scale(0.100000,-0.100000)"
fill="#000000" stroke="none">
<path d="M885 3780 c-63 -24 -121 -80 -151 -145 l-24 -50 0 -915 0 -915 24
-50 c30 -66 89 -121 154 -145 52 -20 82 -20 1782 -20 1702 0 1730 0 1782 20
63 23 128 85 157 150 20 44 21 62 21 960 l0 915 -24 50 c-30 66 -89 121 -154
145 -52 20 -82 20 -1785 19 -1686 0 -1733 -1 -1782 -19z m565 -1110 l0 -1000
-242 0 c-274 0 -309 8 -348 72 -20 32 -20 48 -20 928 0 880 0 896 20 928 39
64 74 72 348 72 l242 0 0 -1000z m2350 0 l0 -1000 -1130 0 -1130 0 0 1000 0
1000 1130 0 1130 0 0 -1000z m617 980 c25 -11 51 -33 63 -52 20 -32 20 -48 20
-923 0 -1009 6 -938 -80 -982 -42 -22 -55 -23 -287 -23 l-243 0 0 1000 0 1000
243 0 c217 0 246 -2 284 -20z"/>
<path d="M1020 2670 l0 -700 130 0 130 0 0 700 0 700 -130 0 -130 0 0 -700z"/>
<path d="M2262 3142 l-411 -237 0 -65 -1 -65 160 -90 c100 -56 160 -95 160
-105 0 -8 -7 -24 -15 -34 -19 -26 -19 -61 0 -90 15 -22 14 -31 -4 -102 -42
-163 -65 -354 -47 -383 10 -16 36 -14 42 4 5 12 11 11 34 -6 22 -17 31 -19 49
-10 11 7 21 17 21 23 0 6 9 3 20 -7 11 -10 26 -15 36 -11 15 6 16 18 10 99 -3
50 -13 121 -20 157 -8 36 -13 66 -12 67 1 2 31 -13 67 -31 111 -59 198 -80
329 -80 174 -1 326 50 433 145 l47 41 0 111 0 112 170 95 170 95 -2 65 -3 64
-385 224 c-212 122 -396 229 -411 237 -24 13 -42 4 -437 -223z m1157 -272 c0
-9 -735 -420 -750 -419 -20 0 -404 223 -404 234 0 13 328 223 338 218 18 -11
76 9 101 34 50 50 24 103 -51 103 -36 0 -50 -6 -74 -29 -16 -16 -29 -35 -29
-43 0 -7 -75 -60 -166 -117 -91 -58 -172 -111 -180 -118 -12 -12 -33 -3 -144
59 -71 40 -130 76 -130 79 0 3 167 102 372 220 l372 215 373 -215 c205 -119
372 -218 372 -221z m-1377 -125 c76 -42 136 -81 133 -85 -6 -11 -285 148 -285
161 0 6 3 8 8 6 4 -2 69 -39 144 -82z m1392 56 c-5 -5 -177 -105 -383 -221
-342 -194 -376 -211 -399 -201 -25 12 -393 220 -401 227 -2 2 -2 7 2 10 3 3
98 -47 211 -111 113 -65 211 -115 218 -112 7 3 179 100 383 215 327 186 404
226 369 193z m-731 -475 c17 9 110 61 205 115 95 55 175 99 178 99 2 0 4 -36
4 -80 l0 -80 -41 -30 c-55 -40 -134 -76 -206 -95 -77 -21 -240 -20 -318 0
-125 33 -269 116 -278 161 -2 13 -1 24 3 24 14 0 32 58 25 79 -5 16 42 -7 195
-94 l200 -115 33 16z"/>
<path d="M4060 2670 l0 -700 130 0 130 0 0 700 0 700 -130 0 -130 0 0 -700z"/>
</g>
</svg>
